<?xml version="1.0" standalone="no"?>
<!DOCTYPE svg PUBLIC "-//W3C//DTD SVG 20010904//EN"
 "http://www.w3.org/TR/2001/REC-SVG-20010904/DTD/svg10.dtd">
<svg version="1.0" xmlns="http://www.w3.org/2000/svg"
 width="225.000000pt" height="225.000000pt" viewBox="0 0 225.000000 225.000000"
 preserveAspectRatio="xMidYMid meet">
<metadata>
Created by potrace 1.14, written by Peter Selinger 2001-2017
</metadata>
<g transform="translate(0.000000,225.000000) scale(0.100000,-0.100000)"
fill="#000000" stroke="none">
<path d="M463 2056 c-99 -32 -194 -113 -236 -204 -22 -47 -22 -48 -22 -702 l0
-655 34 -63 c41 -75 103 -135 179 -170 l57 -27 328 -3 327 -3 0 455 0 456 453
0 452 0 -2 137 c-2 76 -4 224 -5 328 l-3 191 -32 65 c-39 79 -102 140 -181
177 l-57 27 -625 2 c-497 2 -634 -1 -667 -11z m227 -356 l5 -65 60 0 60 0 3
-37 3 -38 -68 0 -68 0 0 -62 0 -63 -37 -3 -38 -3 0 65 0 66 -66 0 -65 0 3 38
3 37 63 0 62 0 0 61 c0 33 3 64 7 68 4 4 21 6 38 4 29 -3 30 -4 35 -68z m1058
-102 l3 -38 -170 0 -171 0 0 33 c0 19 3 37 7 41 4 3 79 5 167 4 l161 -3 3 -37z
m-1056 -801 l48 47 25 -24 25 -24 -47 -48 -47 -48 47 -48 47 -48 -25 -24 -25
-24 -48 47 -48 47 -44 -45 -44 -45 -25 25 -25 25 44 45 44 45 -44 45 -44 45
24 25 24 26 45 -46 46 -45 47 47z"/>
<path d="M1420 775 l0 -35 165 0 165 0 0 35 0 35 -165 0 -165 0 0 -35z"/>
<path d="M1420 625 l0 -35 165 0 165 0 0 35 0 35 -165 0 -165 0 0 -35z"/>
</g>
</svg>
